<svg xmlns="http://www.w3.org/2000/svg" viewBox="0 0 64 80" x="0px" y="0px"><path d="m56.78,30.38l-4-5c-.11-.13-.25-.24-.41-.3l-14.61-5.84c.53-.15.84-.69.7-1.21-.14-.53-.69-.85-1.22-.71-.37.1-.74.22-1.1.37-.3.12-.49.39-.57.68l-3.19-1.28c-.24-.1-.5-.1-.74,0l-20,8c-.16.06-.3.17-.41.3l-4,5c-.2.25-.27.57-.19.88.08.31.3.56.6.67l3.37,1.35v18.72c0,.41.25.78.63.93l20,8s.02,0,.04,0c.11.04.22.06.34.06s.23-.03.34-.06c.01,0,.02,0,.04,0l20-8c.38-.15.63-.52.63-.93v-18.72l3.37-1.35c.29-.12.52-.37.6-.67.08-.31.01-.63-.19-.88Zm-24.78-11.3l17.31,6.92-17.31,6.92-17.31-6.92,17.31-6.92Zm-19.68,8.13l18.06,7.22-2.69,3.37-18.06-7.22,2.69-3.37Zm.68,6.87l14.63,5.85c.41.16.88.04,1.15-.3l2.22-2.77v21.67l-18-7.2v-17.25Zm38,17.25l-18,7.2v-21.67l2.22,2.77c.19.24.48.38.78.38.12,0,.25-.02.37-.07l14.63-5.85v17.25Zm-14.68-13.53l-2.69-3.37,18.06-7.22,2.69,3.37-18.06,7.22ZM18.35,12.92l2.46,2.84c.7.81,1.63,1.24,2.59,1.24.38,0,.77-.07,1.15-.21,1.49-.56,2.46-2.05,2.46-3.8v-.77c.61-.55,1-1.34,1-2.22s-.39-1.67-1-2.22v-.77c0-1.75-.96-3.25-2.46-3.8-1.33-.5-2.76-.1-3.74,1.03l-2.46,2.84c-1.34.3-2.35,1.49-2.35,2.92s1.01,2.62,2.35,2.92Zm7.65-2.92c0,.55-.45,1-1,1h-6c-.55,0-1-.45-1-1s.45-1,1-1h6c.55,0,1,.45,1,1Zm-2.16,4.92c-.32.12-.94.22-1.53-.46l-1.26-1.46h3.94c0,1.1-.62,1.72-1.16,1.92Zm-1.53-9.37c.58-.68,1.21-.58,1.53-.46.53.2,1.15.82,1.16,1.92h-3.94l1.26-1.46Zm8.56,4.46c0-.55.45-1,1-1h.5c.55,0,1,.45,1,1s-.45,1-1,1h-.5c-.55,0-1-.45-1-1Zm9.73,8.12c-.08-.55.29-1.05.84-1.14.25-.04.5-.11.74-.21.51-.22,1.1.01,1.32.52.22.51-.01,1.1-.52,1.32-.4.17-.81.29-1.24.36-.05,0-.1.01-.15.01-.49,0-.91-.36-.99-.85Zm.06-8.23c.09-.55.6-.92,1.15-.82.43.07.84.19,1.23.37.5.23.73.82.5,1.32-.17.37-.53.59-.91.59-.14,0-.28-.03-.41-.09-.23-.1-.48-.18-.74-.22-.54-.09-.91-.6-.82-1.15Zm3.31,4.53c.02-.13.03-.27.03-.41,0-.12,0-.25-.02-.36-.07-.55.32-1.05.87-1.11.56-.08,1.05.32,1.11.87.02.2.04.4.04.61,0,.23-.02.45-.04.67-.07.5-.5.87-.99.87-.04,0-.09,0-.13,0-.55-.07-.93-.57-.86-1.12Zm-12.08,7.09c.18-.34.39-.67.62-.99.33-.45.95-.54,1.4-.22.45.33.54.95.22,1.4-.17.24-.33.49-.47.75-.18.34-.53.53-.88.53-.16,0-.32-.04-.47-.12-.49-.26-.67-.87-.41-1.35Zm3.61-11.51c0-.55.45-1,1-1h1.03c.55,0,1,.45,1,1s-.45,1-1,1h-1.03c-.55,0-1-.45-1-1Zm-4.62,16.5v-.5c0-.55.45-1,1-1s1,.45,1,1v.5c0,.55-.45,1-1,1s-1-.45-1-1Z"/></svg>